<?xml version="1.0" encoding="utf-8"?>
<svg xmlns="http://www.w3.org/2000/svg" xmlns:xlink="http://www.w3.org/1999/xlink" style="margin: auto; background: #242424; display: block; z-index: 1; position: relative; shape-rendering: auto;" width="1512" height="821" preserveAspectRatio="xMidYMid" viewBox="0 0 1512 821">
<g transform="translate(756,410.5) scale(1,1) translate(-756,-410.5)"><g transform="translate(1184.131793423222,99.44404448682326) scale(100)" opacity="0.74">
  <path d="M5.159699999999999 0 C5.159699999999999 1.2171599999999996 5.30616159774793 1.658058519529732 4.69758159774793 2.712149999999999 S3.633941480470267 3.859851275906567 2.57985 4.468431275906567 S1.2171599999999998 5.424299999999999 3.3214258163074932e-16 5.424299999999999 S-1.5257585195297312 5.0770112759065675 -2.579849999999998 4.468431275906568 S-4.089001597747929 3.766241480470268 -4.697581597747929 2.712150000000001 S-5.159699999999999 1.2171600000000002 -5.159699999999999 6.318810089560597e-16 S-5.306161597747931 -1.6580585195297308 -4.697581597747931 -2.712149999999998 S-3.6339414804702685 -3.8598512759065664 -2.5798500000000018 -4.468431275906567 S-1.2171600000000005 -5.424299999999999 -9.964277448922478e-16 -5.424299999999999 S1.5257585195297285 -5.077011275906568 2.579849999999996 -4.468431275906569 S4.089001597747927 -3.766241480470268 4.697581597747928 -2.7121500000000016 S5.159699999999999 -1.217160000000001 5.159699999999999 -1.2637620179121194e-15" fill="#e0f2fe" stroke-width="0">
    <animateTransform attributeName="transform" type="rotate" dur="10s" repeatCount="indefinite" values="0;60"></animateTransform>
  </path>
</g><g transform="translate(1269.7581521078664,37.23285338418793) scale(100)" opacity="0.74">
  <path d="M6.191639999999999 0 C6.191639999999999 1.4605919999999997 6.367393917297515 1.9896702234356778 5.637097917297515 3.2545799999999985 S4.3607297765643205 4.63182153108788 3.0958200000000002 5.36211753108788 S1.4605920000000001 6.509159999999998 3.9857109795689915e-16 6.509159999999998 S-1.8309102234356773 6.09241353108788 -3.095819999999998 5.362117531087881 S-4.906801917297513 4.519489776564321 -5.637097917297513 3.254580000000001 S-6.191639999999999 1.4605920000000003 -6.191639999999999 7.582572107472716e-16 S-6.367393917297515 -1.9896702234356765 -5.637097917297516 -3.254579999999997 S-4.360729776564322 -4.63182153108788 -3.095820000000002 -5.36211753108788 S-1.4605920000000008 -6.509159999999998 -1.1957132938706974e-15 -6.509159999999998 S1.8309102234356742 -6.092413531087882 3.0958199999999954 -5.362117531087883 S4.906801917297512 -4.519489776564322 5.637097917297513 -3.254580000000002 S6.191639999999999 -1.4605920000000012 6.191639999999999 -1.5165144214945432e-15" fill="#80accf" stroke-width="0">
    <animateTransform attributeName="transform" type="rotate" dur="5s" repeatCount="indefinite" values="0;60"></animateTransform>
  </path>
</g><g transform="translate(1475.261412951013,-112.07400526213678) scale(100)" opacity="0.74">
  <path d="M8.668295999999996 0 C8.668295999999996 2.044828799999999 8.91435148421652 2.785538312809949 7.89193708421652 4.556411999999997 S6.105021687190047 6.484550143523031 4.334147999999999 7.506964543523031 S2.0448287999999994 9.112823999999996 5.579995371396588e-16 9.112823999999996 S-2.563274312809948 8.529378943523032 -4.334147999999996 7.506964543523032 S-6.869522684216518 6.327285687190049 -7.891937084216519 4.556412000000001 S-8.668295999999996 2.0448288 -8.668295999999996 1.0615600950461801e-15 S-8.914351484216521 -2.7855383128099467 -7.891937084216521 -4.5564119999999955 S-6.10502168719005 -6.4845501435230295 -4.334148000000002 -7.50696454352303 S-2.044828800000001 -9.112823999999996 -1.6739986114189762e-15 -9.112823999999996 S2.563274312809943 -8.529378943523033 4.334147999999992 -7.5069645435230345 S6.869522684216517 -6.3272856871900505 7.891937084216518 -4.556412000000003 S8.668295999999996 -2.0448288000000012 8.668295999999996 -2.1231201900923603e-15" fill="#026aa2" stroke-width="0">
    <animateTransform attributeName="transform" type="rotate" dur="3.3333333333333335s" repeatCount="indefinite" values="0;60"></animateTransform>
  </path>
</g></g>
</svg>