<?xml version="1.0" encoding="utf-8"?>
<svg xmlns="http://www.w3.org/2000/svg" xmlns:xlink="http://www.w3.org/1999/xlink" style="margin: auto; background: #242424; display: block; z-index: 1; position: relative; shape-rendering: auto;" width="392" height="976" preserveAspectRatio="xMidYMid" viewBox="0 0 392 976">
<g transform="translate(196,488) scale(1,1) translate(-196,-488)"><g transform="translate(228.14739982960447,147.91603289158792) scale(100)" opacity="0.74">
  <path d="M3.3305999999999996 0 C3.3305999999999996 0.7856799999999998 3.4251413488108327 1.0702811607546416 3.0323013488108326 1.7506999999999993 S2.345718839245358 2.491544209844451 1.6653000000000002 2.884384209844451 S0.78568 3.501399999999999 2.1439891512672707e-16 3.501399999999999 S-0.9848811607546415 3.2772242098444506 -1.6652999999999991 2.884384209844451 S-2.639461348810832 2.431118839245358 -3.032301348810832 1.7507000000000006 S-3.3305999999999996 0.7856800000000003 -3.3305999999999996 4.078808629240174e-16 S-3.4251413488108327 -1.0702811607546407 -3.032301348810833 -1.7506999999999986 S-2.3457188392453587 -2.4915442098444505 -1.6653000000000013 -2.8843842098444505 S-0.7856800000000005 -3.501399999999999 -6.431967453801811e-16 -3.501399999999999 S0.9848811607546396 -3.2772242098444515 1.6652999999999976 -2.8843842098444523 S2.6394613488108316 -2.431118839245358 3.0323013488108317 -1.750700000000001 S3.3305999999999996 -0.7856800000000006 3.3305999999999996 -8.157617258480348e-16" fill="#e0f2fe" stroke-width="0">
    <animateTransform attributeName="transform" type="rotate" dur="10s" repeatCount="indefinite" values="0;60"></animateTransform>
  </path>
</g><g transform="translate(234.57687979552537,79.89923946990547) scale(100)" opacity="0.74">
  <path d="M3.99672 0 C3.99672 0.9428159999999999 4.110169618573 1.2843373929055701 3.638761618573 2.1008399999999994 S2.8148626070944296 2.9898530518133413 1.9983600000000004 3.461261051813341 S0.9428160000000001 4.20168 2.572786981520725e-16 4.20168 S-1.1818573929055698 3.9326690518133414 -1.998359999999999 3.4612610518133415 S-3.167353618572999 2.9173426070944304 -3.638761618572999 2.100840000000001 S-3.99672 0.9428160000000003 -3.99672 4.894570355088209e-16 S-4.110169618573 -1.2843373929055693 -3.6387616185730005 -2.1008399999999985 S-2.8148626070944305 -2.9898530518133404 -1.9983600000000017 -3.4612610518133407 S-0.9428160000000007 -4.20168 -7.718360944562175e-16 -4.20168 S1.1818573929055676 -3.9326690518133423 1.9983599999999972 -3.461261051813343 S3.1673536185729985 -2.9173426070944304 3.6387616185729987 -2.1008400000000016 S3.9967199999999994 -0.9428160000000009 3.99672 -9.789140710176418e-16" fill="#80accf" stroke-width="0">
    <animateTransform attributeName="transform" type="rotate" dur="5s" repeatCount="indefinite" values="0;60"></animateTransform>
  </path>
</g><g transform="translate(250.00763171373552,-83.34106474213229) scale(100)" opacity="0.74">
  <path d="M5.595407999999999 0 C5.595407999999999 1.3199423999999997 5.754237466002198 1.7980723500677978 5.094266266002199 2.9411759999999987 S3.940807649932201 4.1857942725386765 2.797704 4.845765472538677 S1.3199424000000002 5.882351999999998 3.601901774129015e-16 5.882351999999998 S-1.6546003500677973 5.505736672538677 -2.797703999999998 4.845765472538678 S-4.434295066002197 4.084279649932201 -5.094266266002197 2.941176000000001 S-5.595407999999999 1.3199424000000004 -5.595407999999999 6.852398497123493e-16 S-5.754237466002199 -1.7980723500677964 -5.0942662660022 -2.9411759999999973 S-3.9408076499322027 -4.1857942725386765 -2.797704000000002 -4.845765472538677 S-1.3199424000000008 -5.882351999999998 -1.0805705322387042e-15 -5.882351999999998 S1.6546003500677946 -5.505736672538679 2.797703999999996 -4.845765472538679 S4.434295066002197 -4.084279649932203 5.094266266002197 -2.941176000000002 S5.595407999999999 -1.319942400000001 5.595407999999999 -1.3704796994246985e-15" fill="#026aa2" stroke-width="0">
    <animateTransform attributeName="transform" type="rotate" dur="3.3333333333333335s" repeatCount="indefinite" values="0;60"></animateTransform>
  </path>
</g></g>
</svg>