<svg width="78" height="106" viewBox="0 0 78 106" fill="none" xmlns="http://www.w3.org/2000/svg">
<path d="M43.4432 14.4809L51.4432 1.98086C31.9432 -4.0192 8.28843 3.98082 4.44318 20.9808C-5.96161 66.9808 64.9432 50.9808 62.9432 76.9808C62.0201 88.9808 47.5 90.9808 41.4432 90.9808L34.4432 104.981C34.4432 104.981 73.4188 109.481 77.4432 79.4808C83.0773 37.4808 10.4432 51.4808 18.9432 24.4808C22.3342 13.7095 36.9432 13.4808 43.4432 14.4809Z" fill="#026AA2"/>
<path d="M0 82L13.5 76.5C16.7173 81.6476 20.7626 85.0436 25 87.2435L19 100.335C8.08318 94.9426 1.9975 86.6355 0 82Z" fill="#026AA2"/>
</svg>
